/* XPM */ 
static const unsigned char * icono_16_xpm[] = {
"16 16 41 1",
" 	c None",
"!	c black",
"#	c #44C2FA",
"$	c #50C6FA",
"%	c #73D1FB",
"&	c #8AD9FC",
"'	c #5BCAFB",
"(	c #7FD5FC",
")	c #87D8FC",
"*	c white",
"+	c #AEE4FD",
",	c #A2E1FD",
"-	c #67CDFB",
".	c #ACE4FD",
"0	c #9ADEFC",
"1	c #98DDFC",
"2	c #BEEAFD",
"3	c #82D6FC",
"4	c #CDEFFE",
"5	c #D0F0FE",
"6	c #DFF5FE",
"7	c #C1EBFD",
"8	c #B4E7FD",
"9	c #9BDEFC",
":	c #82D7FC",
";	c #92DBFC",
"<	c #B9E8FD",
"=	c #E6F7FE",
">	c #DAF3FE",
"?	c #C7EDFD",
"@	c #A9E3FC",
"A	c #64CCFB",
"B	c #76D2FC",
"C	c #D2F1FE",
"D	c #C4ECFD",
"E	c #F8FDFF",
"F	c #E8F7FE",
"G	c #E1F5FE",
"H	c #D4F1FE",
"I	c #8FDAFC",
"J	c #44C2F8",
"     ######     ",
"   ##########   ",
"  ###$%&'(####  ",
" ###')*+,-##### ",
" ####$.0123#### ",
"###(45**673#####",
"####8*3$-#######",
"####9*93:79#####",
"###-;<**=>9#####",
"####$*>$'&######",
"#####?@#$AB9####",
" ###&4*CDEF4### ",
" ####9GH>*I-### ",
"  ####-'&%$###  ",
"   ##########   ",
"     #####J     "};