/* XPM */ 
static const unsigned char * icono_64_xpm[] = {
"64 64 57 1",
" 	c None",
"!	c black",
"#	c #44C2FA",
"$	c #67CDFB",
"%	c #A2E1FD",
"&	c #C5ECFD",
"'	c #5BCAFB",
"(	c #73D1FB",
")	c #50C6FA",
"*	c #B9E8FD",
"+	c #D1F0FE",
",	c #8AD9FC",
"-	c white",
".	c #7FD5FC",
"0	c #E8F8FE",
"1	c #DDF4FE",
"2	c #76D2FB",
"3	c #8FDAFC",
"4	c #9BDEFC",
"5	c #C1EBFD",
"6	c #AEE4FD",
"7	c #DAF3FE",
"8	c #CDEFFE",
"9	c #E6F7FE",
":	c #F3FBFF",
";	c #C4ECFD",
"<	c #E8F7FE",
"=	c #ADE4FD",
">	c #D0F0FE",
"?	c #4FC6FA",
"@	c #82D6FC",
"A	c #72D1FB",
"B	c #B4E7FD",
"C	c #DCF4FE",
"D	c #A8E3FD",
"E	c #66CDFB",
"F	c #F4FBFF",
"G	c #5DCAFB",
"H	c #69CEFB",
"I	c #7ED5FC",
"J	c #95DDFC",
"K	c #5BC9FB",
"L	c #96DDFC",
"M	c #A1E0FC",
"N	c #F5FCFF",
"O	c #B3E7FD",
"P	c #C3ECFE",
"Q	c #C9EDFD",
"R	c #43C0F7",
"S	c #43C0F8",
"T	c #44C1F9",
"U	c #43BEF4",
"V	c #44C0F6",
"W	c #42BAF0",
"X	c #43BFF6",
"Y	c #43BDF4",
"Z	c #42BDF3",
"                           ##########                           ",
"                       ##################                       ",
"                    ########################                    ",
"                  #############################                 ",
"                ################################                ",
"              ####################################              ",
"             ######################################             ",
"            #########################################           ",
"          ############################################          ",
"         ##############################################         ",
"        #####################$%&&###'()#################        ",
"        ###############)%*+'#,---)##*-,##################       ",
"       ################'---.#$---(##(%'##################       ",
"      ##############(###---%##---%########################      ",
"     ##############0-'##+--&##1--*###2345##################     ",
"     ##############6%'##6--0##*--789-----)#################     ",
"    ####################,--:89----:;*----2##################    ",
"    ###############23489--<=>-----:#?----4###################   ",
"   #############@9-------->#A------=>----B###################   ",
"   #############2---------<;C----------983####################  ",
"  ############'##----------------:8D32########################  ",
"  ##########$-1##9---------:8D42)#############################  ",
"  ###########+6##5--E?--D2)#################################### ",
" ################4--EA--@########+F############################ ",
" ################2------4########+1$########################### ",
" ################G------8###################################### ",
" #################:-----9###############H@######################",
"##################8------)########H@457---######################",
"##################D------2##H@457---------2#####################",
"##################3------77---------------3#####################",
"##################H-------------CEI-------D#####################",
"###################-------------<?J-------8#####################",
"###################7-*K=------------:8D42)######################",
"##############$+&##B-*K*------:8D42)############################",
"###############-1##4------842)##################################",
"###################2------D#####################################",
" ##################)------8#########('##########################",
" ###################9-----:########L-6##########################",
" ###################8------G#######'%.######################### ",
" ###################4------2################################### ",
" ###################@------4#############H@4573################ ",
"  ##################G--:M*-5#######H@457------4################ ",
"  ###################--:#?-9#H@457----->=-----8###############  ",
"  ###################8--><-------------K#<----:###############  ",
"   ##################D----------:C-----*;:-----)#############   ",
"   ##################4---------<#K---------:8D4)#############   ",
"    #############&-$#2----------IM---N1O42)##################   ",
"    #############%+'##---------N1P42---%####################    ",
"     #################7--:8D42Q--+##+--&##'%6##############     ",
"     #################@2)#####%---##*--1###--##############     ",
"      ########################(---$#L---###(##############      ",
"       ##################$+&##'---.#(---(################       ",
"        ##################-+###F--%##%,(################        ",
"         ######################,L()#####################        ",
"         ##############################################         ",
"           ###########################################          ",
"            ########################################            ",
"             ######################################             ",
"               ##################################R              ",
"                ###############################S                ",
"                  ###########################R                  ",
"                    ######################TU                    ",
"                       ################VW                       ",
"                            SRXXYYZZ                            "};