/* XPM */ 
static const unsigned char * icono_32_xpm[] = {
"32 32 53 1",
" 	c None",
"!	c black",
"#	c #44C2FA",
"$	c #50C6FA",
"%	c #73D1FB",
"&	c #67CDFB",
"'	c #D1F0FE",
"(	c #A2E1FD",
")	c #B9E8FD",
"*	c #5BCAFB",
"+	c white",
",	c #7FD5FC",
"-	c #AEE4FD",
".	c #F4FBFF",
"0	c #EEFAFF",
"1	c #9BDEFC",
"2	c #A8E3FD",
"3	c #CDEFFE",
"4	c #76D2FB",
"5	c #8FDAFC",
"6	c #D3F1FE",
"7	c #DEF5FE",
"8	c #DCF4FE",
"9	c #95DDFC",
":	c #B4E7FD",
";	c #C4ECFD",
"<	c #E8F7FE",
"=	c #8AD9FC",
">	c #DAF3FE",
"?	c #C1EBFD",
"@	c #82D6FC",
"A	c #69CEFB",
"B	c #F3FBFF",
"C	c #5DCAFB",
"D	c #7ED5FC",
"E	c #D0F0FE",
"F	c #72D1FB",
"G	c #E6F7FE",
"H	c #A1E0FC",
"I	c #C5ECFD",
"J	c #92DBFC",
"K	c #C9EDFE",
"L	c #E8F8FE",
"M	c #44C1F9",
"N	c #96DDFC",
"O	c #DDF4FE",
"P	c #44C2F9",
"Q	c #43BEF5",
"R	c #44BFF6",
"S	c #44C1F8",
"T	c #44C0F8",
"U	c #42BEF5",
"V	c #41B9EF",
"            ########            ",
"         ##############         ",
"       ##################       ",
"      ####################      ",
"     ######################     ",
"    #######$%%&'(#)*########    ",
"   #######$*+'&+'#,$#########   ",
"  #######(-#+.#+01231#########  ",
"  ########45678++9)+:#########  ",
" #######:++++9;++<<+2########## ",
" #####=%1+++++>?1@A############ ",
" #####%%4+#+4###%%############# ",
"########$+++4###%%##############",
"#########B++1####C41:###########",
"#########3++31:3+++++$##########",
"#########1++++++D)+++4##########",
"#######%%5EF+++B3214$###########",
"#######=%A+++1$#################",
"##########+++5###*(#############",
"##########>++2###*,#############",
" #########:BE3####4513GA####### ",
" #########1<F+13G++;)++@####### ",
" #########4++++<H++8<+>5####### ",
"  ######(I$++++BJI3KA#########  ",
"  #########:1@A.+#+L#-=######M  ",
"   #########$N#'+*O+$**######   ",
"    ########$-#('&=%$#######    ",
"     ######################     ",
"      ###################P      ",
"       #################Q       ",
"         #############R         ",
"           SMM####TUV           "};