/* XPM */ 
static const unsigned char * icono_128_xpm[] = {
"128 128 52 1",
" 	c None",
"!	c black",
"#	c #44C2FA",
"$	c #5BCAFB",
"%	c #73D1FB",
"&	c #A2E1FD",
"'	c #B9E8FD",
"(	c #D1F0FE",
")	c white",
"*	c #AEE4FD",
"+	c #8AD9FC",
",	c #50C6FA",
"-	c #DDF4FE",
".	c #96DDFC",
"0	c #E8F8FE",
"1	c #C5ECFD",
"2	c #F4FBFF",
"3	c #7FD5FC",
"4	c #76D2FB",
"5	c #8FDAFC",
"6	c #82D6FC",
"7	c #67CDFB",
"8	c #9BDEFC",
"9	c #CDEFFE",
":	c #E6F7FE",
";	c #C1EBFD",
"<	c #DAF3FE",
"=	c #F7FDFF",
">	c #F6FCFF",
"?	c #5DCAFB",
"@	c #DCF4FE",
"A	c #A1E0FC",
"B	c #7ED5FC",
"C	c #66CDFB",
"D	c #D0F0FE",
"E	c #B4E7FD",
"F	c #ADE4FD",
"G	c #F3FBFF",
"H	c #E8F7FE",
"I	c #69CEFB",
"J	c #A8E3FD",
"K	c #72D1FB",
"L	c #4FC6FA",
"M	c #95DDFC",
"N	c #5BC9FB",
"O	c #C4ECFD",
"P	c #E9F8FE",
"Q	c #85D7FC",
"R	c #96DCFC",
"S	c #C1EAFD",
"T	c #C7EDFE",
"U	c #AAE3FD",
"                                                                                                                                ",
"                                                     ######################                                                     ",
"                                                ################################                                                ",
"                                            #######################################                                             ",
"                                          ############################################                                          ",
"                                       ##################################################                                       ",
"                                     ######################################################                                     ",
"                                   ##########################################################                                   ",
"                                 ##############################################################                                 ",
"                               ##################################################################                               ",
"                              ####################################################################                              ",
"                            ########################################################################                            ",
"                           ##########################################################################                           ",
"                          ############################################################################                          ",
"                        ################################################################################                        ",
"                       ##################################################################################                       ",
"                      ####################################################################################                      ",
"                     ######################################################################################                     ",
"                    ########################################################################################                    ",
"                   ##########################################################################################                   ",
"                  ############################################$%&%############################################                  ",
"                 ##########################################'())))*#######%+&,##################################                 ",
"                ###################################%+&#####-)))))(######.)))%###################################                ",
"               ################################%(0)))),####1)))))2######%)))&####################################               ",
"              #################################3))))))%####&))))))$######)('%#####################################              ",
"              #################################$)))))).####%))))))%###############################################              ",
"             ###################################))))))'####,))))))&################################################             ",
"            ###########################,%3######()))))-#####2)))))1#################################################            ",
"           ###########################()))######*))))))#####()))))0############456###################################           ",
"           ###########################&)))$#####+))))))7####&))))))######4589:)))9###################################           ",
"          ############################+))(7#####%))))))+####3))))))568;<))))))))))####################################          ",
"          ############################,$#########))))))*####7)))=>))))))))))))))))?###################################          ",
"         ########################################-)))))<68;<))))))))))))))))))))))6####################################         ",
"        #########################################()))>)))))))))))))))@ABCD))))))))8#####################################        ",
"        ###################################?48E<)))))))))))))))))))))D###F))))))));#####################################        ",
"       ##############################?48E9)))))))))))'BCC))))))))))))G###+)))))))):######################################       ",
"       ##########################5E9)))))))))))))))))B###)))))))))))))BA'@)))))))))######################################       ",
"      ###########################9)))))))))))))))))))A###D)))))))))))))))))))))))))4######################################      ",
"      ###########################8)))))))))))))))))))HA'D))))))))))))))))))))))))))8######################################      ",
"      ###########################6))))))))))))))))))))))))))))))))))))))))))))<;86I#######################################      ",
"     ############################?))))))))))))))))))))))))))))))))))))))<;86I##############################################     ",
"     #######################$,####))))))))))))))))))))))))))))))))<;86I####################################################     ",
"    #####################7())3####9))))))))))))))))))))))))):9854###########################################################    ",
"    #####################7)))&####J))))))))))))))))))):9854#################################################################    ",
"    ######################)))1####8)))))A+KA)))):9854#######################################################################    ",
"   #######################%%######4)))))###K))))5############################################################################   ",
"   ################################)))))K##L))))J#################3&1&#######################################################   ",
"   ################################<))))FA'D))))9#################0))-#######################################################   ",
"   ################################;))))))))))))G#################1)))#######################################################   ",
"  #################################8)))))))))))))?################+(&+########################################################  ",
"  #################################4)))))))))))))4############################################################################  ",
"  #################################?)))))))))))))8############################################################################  ",
"  ##################################G))))))))))));############################################################################  ",
"  ##################################9)))))))))))):#############################,48JJ##########################################  ",
" ###################################J)))))))))))))#######################,48J9G))))<########################################### ",
" ###################################5)))))))))))))4################,48J9G)))))))))))########################################### ",
" ###################################I)))))))))))))8##########,48J9G)))))))))))))))))4########################################## ",
" ####################################)))))))))))))J#####45J9G)))))))))))))))))))))))8########################################## ",
" ####################################<))))))))))))<589:)))))))))))))))))))))))))))))J########################################## ",
" ####################################E))))))))))))))))))))))))))))))))))))))))))))))9########################################## ",
" ####################################8)))))))))))))))))))))))))))@FMK))))))))))))))))########################################## ",
" ####################################4)))))))))))))))))))))))))))M###G)))))))))))))))?######################################### ",
" ####################################,)))))))))))))))))))))))))))F###D)))))))))))))))6######################################### ",
" #####################################:))))))))))))))))))))))))))@K+AH)))))))))))))):5######################################### ",
" #####################################9))))'AK'))))))))))))))))))))))))))))))):9854############################################ ",
" #####################################8))))###B)))))))))))))))))))))))))G9J54################################################## ",
" ############################,%.*%####6))))C##N)))))))))))))))))))G9J84,####################################################### ",
" ############################%)))&####I))))ABAO)))))))))))))G9J84,############################################################# ",
" #############################)))1#####)))))))))))))))G9J84,################################################################### ",
" #############################-('+#####9)))))))))))):,######################################################################### ",
" ######################################E)))))))))))))########################################################################## ",
" ######################################8)))))))))))))I######################################################################### ",
" ######################################4)))))))))))))5######################################################################### ",
" #######################################)))))))))))))8##################%+%#################################################### ",
"  ######################################:))))))))))))9#################)))1###################################################  ",
"  ######################################;))))))))))))G#################-))-###################################################  ",
"  ######################################8)))))))))))))?################1)-1###################################################  ",
"  ######################################6)))))))))))))4#######################################################################  ",
"  ######################################?)))))))))))))8#######################################################################  ",
"   ######################################G))))))))))));######################################################################   ",
"   ######################################9))))))))))))<################################I68;<8################################   ",
"   ######################################J)))))))))))))##########################?48E<))))));################################   ",
"   ######################################5)))))))))))))4###################?48E9))))))))))))<################################   ",
"    #####################################4)))))@BC#D)))5#############?48E9)))))))))))))))))))###############################    ",
"    ######################################)))))D###A)))J#######?48E9)))))))))))))))))))))))))4##############################    ",
"    ######################################<)))))###+)))9#,48E9))))))))))))))))D'AF)))))))))))5##############################    ",
"     #####################################E)))))A'D)))))G)))))))))))))))))))))L##K)))))))))))J#############################     ",
"     #####################################8)))))))))))))))))))))))))))))))))))K###)))))))))))9#############################     ",
"      ####################################4)))))))))))))))))))))))))))))))))))AK+A))))))))))))############################      ",
"      ####################################,)))))))))))))))))))))))DG))))))))))))))))))))))))))?###########################      ",
"      #####################################G)))))))))))))))))))ON##D))))))))))))))))))))))))<;?###########################      ",
"       ####################################9)))))))))))))))))))D###A))))))))))))))))))<;86I##############################       ",
"       ###########################%1-)#####8))))))))))))))))))))###A))))))))))))<;86I####################################       ",
"        ##########################&)))%####5))))))))))))))))))))D@))))))))P(9DQ#########################################        ",
"        ##########################%))).####I)))))))))))))))))))))))):98R-))))).########################################         ",
"         #########################,&+%######)))))))))))))))))):<ST-#####))))))'########################################         ",
"          ##################################9))))))))))):985U0)))))$####()))))-#########$#############################          ",
"          ##################################E)))))G9854#####%))))))%####*))))))######+())7############################          ",
"           #################################89J84,##########,))))))&####.))))))7#####3)))+###########################           ",
"            #################################################2)))))1####%))))))+#####$)))&##########################            ",
"            #################################################()))))0#####))))))*######+%############################            ",
"             ################################################&))))))#####-)))))(###################################             ",
"              #####################################,%.*$#####3))))))%####1)))))2##################################              ",
"               ####################################+)))3#####7)))))).####&))))))$################################               ",
"               ####################################7)))&######))))))'####%)0(&+%#################################               ",
"                ####################################)('%######()))))(####,######################################                ",
"                 #############################################')('&%$##########################################                 ",
"                  ############################################################################################                  ",
"                   ##########################################################################################                   ",
"                    ########################################################################################                    ",
"                     ######################################################################################                     ",
"                      ####################################################################################                      ",
"                       ##################################################################################                       ",
"                        ################################################################################                        ",
"                          ############################################################################                          ",
"                           ##########################################################################                           ",
"                             ######################################################################                             ",
"                              ####################################################################                              ",
"                                ################################################################                                ",
"                                 ##############################################################                                 ",
"                                   ##########################################################                                   ",
"                                     ######################################################                                     ",
"                                        ################################################                                        ",
"                                          ############################################                                          ",
"                                             ######################################                                             ",
"                                                 ##############################                                                 ",
"                                                     ######################                                                     ",
"                                                                                                                                "};